<?xml version="1.0" standalone="no"?>
<!DOCTYPE svg PUBLIC "-//W3C//DTD SVG 20010904//EN"
 "http://www.w3.org/TR/2001/REC-SVG-20010904/DTD/svg10.dtd">
<svg version="1.0" xmlns="http://www.w3.org/2000/svg"
 width="225.000000pt" height="225.000000pt" viewBox="0 0 225.000000 225.000000"
 preserveAspectRatio="xMidYMid meet">
<metadata>
Created by potrace 1.11, written by Peter Selinger 2001-2013
</metadata>
<g transform="translate(0.000000,225.000000) scale(0.100000,-0.100000)"
fill="#000000" stroke="none">
<path d="M1035 2041 c-126 -59 -164 -213 -79 -328 13 -17 49 -44 79 -58 l55
-27 0 -79 0 -79 -245 0 c-192 0 -252 -3 -273 -14 -68 -35 -91 -93 -92 -228 l0
-76 -32 -7 c-52 -11 -101 -43 -128 -82 -24 -35 -25 -42 -28 -237 -2 -111 0
-216 3 -234 12 -63 95 -132 158 -132 23 0 24 -3 30 -86 5 -95 18 -122 77 -161
l33 -23 532 0 532 0 33 23 c59 39 72 66 77 161 6 83 7 86 30 86 63 0 146 69
158 132 3 18 5 123 3 234 -3 195 -4 202 -28 237 -27 39 -76 71 -126 81 l-31 7
-5 110 c-5 121 -14 143 -78 187 -32 21 -40 22 -281 22 l-249 0 0 79 0 80 54
24 c170 78 166 319 -6 391 -50 21 -124 20 -173 -3z m631 -674 l24 -28 0 -509
0 -509 -24 -28 -24 -28 -517 0 -517 0 -24 28 -24 28 0 507 c0 549 -1 539 54
563 12 5 238 8 524 6 l504 -2 24 -28z"/>
<path d="M795 1202 c-75 -47 -110 -131 -85 -206 13 -40 77 -102 115 -112 41
-10 115 2 143 23 101 76 101 211 -1 287 -39 29 -132 33 -172 8z m142 -86 c22
-19 28 -32 28 -66 0 -55 -37 -90 -95 -90 -30 0 -43 6 -64 31 -33 39 -33 79 0
118 33 40 89 43 131 7z"/>
<path d="M1310 1209 c-61 -25 -102 -88 -102 -159 0 -100 71 -170 173 -170 102
0 184 102 165 205 -8 40 -55 99 -97 121 -32 16 -102 18 -139 3z m134 -100 c15
-17 26 -43 26 -59 0 -16 -11 -42 -26 -59 -21 -26 -33 -31 -68 -31 -57 0 -91
34 -91 92 0 83 105 121 159 57z"/>
<path d="M819 710 c-141 -24 -187 -219 -73 -309 48 -38 92 -42 402 -39 331 3
335 4 388 74 21 27 29 50 32 92 4 70 -17 114 -77 156 l-41 30 -298 1 c-163 1
-313 -2 -333 -5z m31 -170 c0 -55 -2 -100 -5 -100 -17 0 -66 33 -75 49 -32 60
9 145 73 150 4 1 7 -44 7 -99z m160 0 l0 -100 -40 0 -40 0 0 100 0 100 40 0
40 0 0 -100z m150 0 l0 -100 -34 0 -33 0 -7 90 c-4 49 -5 94 -1 100 3 5 22 10
41 10 l34 0 0 -100z m160 0 l0 -100 -40 0 -40 0 0 100 0 100 40 0 40 0 0 -100z
m148 64 c24 -27 30 -81 12 -115 -9 -16 -58 -49 -75 -49 -3 0 -5 45 -5 101 0
99 0 100 23 94 12 -4 32 -18 45 -31z"/>
</g>
</svg>
